<?xml version="1.0" encoding="UTF-8" standalone="no"?>
<!-- Created with Inkscape (http://www.inkscape.org/) -->

<svg
   xmlns:dc="http://purl.org/dc/elements/1.1/"
   xmlns:cc="http://creativecommons.org/ns#"
   xmlns:rdf="http://www.w3.org/1999/02/22-rdf-syntax-ns#"
   xmlns:svg="http://www.w3.org/2000/svg"
   xmlns="http://www.w3.org/2000/svg"
   xmlns:sodipodi="http://sodipodi.sourceforge.net/DTD/sodipodi-0.dtd"
   xmlns:inkscape="http://www.inkscape.org/namespaces/inkscape"
   width="10mm"
   height="10mm"
   viewBox="0 0 10 10"
   version="1.1"
   id="svg17545"
   inkscape:version="0.92.4 (5da689c313, 2019-01-14)"
   sodipodi:docname="P.svg">
  <defs
     id="defs17539" />
  <sodipodi:namedview
     id="base"
     pagecolor="#ffffff"
     bordercolor="#666666"
     borderopacity="1.0"
     inkscape:pageopacity="0.0"
     inkscape:pageshadow="2"
     inkscape:zoom="16"
     inkscape:cx="31.180154"
     inkscape:cy="6.6538693"
     inkscape:document-units="mm"
     inkscape:current-layer="layer1"
     showgrid="false"
     inkscape:window-width="3440"
     inkscape:window-height="1385"
     inkscape:window-x="0"
     inkscape:window-y="26"
     inkscape:window-maximized="1" />
  <metadata
     id="metadata17542">
    <rdf:RDF>
      <cc:Work
         rdf:about="">
        <dc:format>image/svg+xml</dc:format>
        <dc:type
           rdf:resource="http://purl.org/dc/dcmitype/StillImage" />
        <dc:title></dc:title>
      </cc:Work>
    </rdf:RDF>
  </metadata>
  <g
     inkscape:label="Layer 1"
     inkscape:groupmode="layer"
     id="layer1"
     transform="translate(0,-287)">
    <g
       id="g18256">
      <path
         sodipodi:nodetypes="ccccccc"
         d="m 2.8641746,290.91606 0.00414,0.17482 H 0.99505874 l -0.0815854,-0.0331 c -0.0305595,-0.0908 0.0725105,-0.14663 -0.0305595,-0.0908 l 0.10738266,-0.0736 z"
         style="font-style:normal;font-variant:normal;font-weight:300;font-stretch:normal;font-size:3.52777767px;line-height:1.25;font-family:'Noto Sans';-inkscape-font-specification:'Noto Sans Light';font-variant-ligatures:normal;font-variant-caps:normal;font-variant-numeric:normal;font-feature-settings:normal;text-align:center;letter-spacing:0px;word-spacing:0px;writing-mode:lr-tb;text-anchor:middle;fill:#999999;fill-opacity:1;stroke:none;stroke-width:0.26458332"
         id="path18106-3-6-7"
         inkscape:connector-curvature="0" />
      <path
         sodipodi:nodetypes="ccccccc"
         d="m 2.8419075,288.67025 0.00414,-0.17482 -1.8275858,0.0418 -0.11485282,0.0223 c -0.030559,0.0908 0.12832162,0.12389 0.0252515,0.0681 l 0.0391698,0.0653 z"
         style="font-style:normal;font-variant:normal;font-weight:300;font-stretch:normal;font-size:3.52777767px;line-height:1.25;font-family:'Noto Sans';-inkscape-font-specification:'Noto Sans Light';font-variant-ligatures:normal;font-variant-caps:normal;font-variant-numeric:normal;font-feature-settings:normal;text-align:center;letter-spacing:0px;word-spacing:0px;writing-mode:lr-tb;text-anchor:middle;fill:#999999;fill-opacity:1;stroke:none;stroke-width:0.26458332"
         id="path18106-3-6-7-5"
         inkscape:connector-curvature="0" />
      <path
         sodipodi:nodetypes="ccccccc"
         d="M 1.0184578,293.15746 H 0.82090212 v -1.87325 -0.24695 c 0.11146901,-0.35 0.0839566,-0.29553 0.0282267,-0.3986 H 1.0184622 Z"
         style="font-style:normal;font-variant:normal;font-weight:300;font-stretch:normal;font-size:3.52777767px;line-height:1.25;font-family:'Noto Sans';-inkscape-font-specification:'Noto Sans Light';font-variant-ligatures:normal;font-variant-caps:normal;font-variant-numeric:normal;font-feature-settings:normal;text-align:center;letter-spacing:0px;word-spacing:0px;writing-mode:lr-tb;text-anchor:middle;fill:#999999;fill-opacity:1;stroke:none;stroke-width:0.26458332"
         id="path18106-3"
         inkscape:connector-curvature="0" />
      <path
         d="M 1.0184617,291.05605 H 0.82090612 v -1.87325 q 0,-0.1517 0,-0.24695 0.003528,-0.0988 0.007056,-0.18697 -0.0493889,0.0494 -0.09525,0.0847 -0.0423333,0.0353 -0.10936111,0.0882 l -0.34924999,0.27164 -0.1093611,-0.14111 0.68438886,-0.51506 H 1.0184617 Z"
         style="font-style:normal;font-variant:normal;font-weight:300;font-stretch:normal;font-size:3.52777767px;line-height:1.25;font-family:'Noto Sans';-inkscape-font-specification:'Noto Sans Light';font-variant-ligatures:normal;font-variant-caps:normal;font-variant-numeric:normal;font-feature-settings:normal;text-align:center;letter-spacing:0px;word-spacing:0px;writing-mode:lr-tb;text-anchor:middle;fill:#000000;fill-opacity:1;stroke:none;stroke-width:0.26458332"
         id="path18096"
         inkscape:connector-curvature="0" />
      <path
         d="m 3.6548141,289.78957 q 0,0.62795 -0.1940278,0.96661 -0.1940278,0.33514 -0.6173611,0.33514 -0.3986389,0 -0.60325,-0.33161 -0.2046111,-0.33161 -0.2046111,-0.97014 0,-0.38805 0.077611,-0.67733 0.077611,-0.28928 0.2575278,-0.45156 0.1799167,-0.16227 0.47625,-0.16227 0.2892777,0 0.4656666,0.15875 0.1799167,0.15875 0.2610556,0.44802 0.081139,0.28928 0.081139,0.68439 z m -1.4181667,0 q 0,0.5715 0.1446389,0.8502 0.1481667,0.27516 0.4621389,0.27516 0.3245555,0 0.4656666,-0.27869 0.1411112,-0.27869 0.1411112,-0.84667 0,-0.35277 -0.056445,-0.59972 -0.052917,-0.25047 -0.1869722,-0.381 -0.1305278,-0.13405 -0.3598333,-0.13405 -0.2293056,0 -0.3633611,0.13405 -0.1305278,0.13406 -0.1905,0.38453 -0.056445,0.25047 -0.056445,0.59619 z"
         style="font-style:normal;font-variant:normal;font-weight:300;font-stretch:normal;font-size:3.52777767px;line-height:1.25;font-family:'Noto Sans';-inkscape-font-specification:'Noto Sans Light';font-variant-ligatures:normal;font-variant-caps:normal;font-variant-numeric:normal;font-feature-settings:normal;text-align:center;letter-spacing:0px;word-spacing:0px;writing-mode:lr-tb;text-anchor:middle;fill:#000000;fill-opacity:1;stroke:none;stroke-width:0.26458332"
         id="path18098"
         inkscape:connector-curvature="0" />
      <path
         d="m 3.9981109,290.09296 0.7902222,-1.57339 h 0.1305278 l 0.7972778,1.57339 H 5.5291664 l -0.6773333,-1.35114 -0.6667499,1.35114 z"
         style="font-style:normal;font-variant:normal;font-weight:300;font-stretch:normal;font-size:3.52777767px;line-height:1.25;font-family:'Noto Sans';-inkscape-font-specification:'Noto Sans Light';font-variant-ligatures:normal;font-variant-caps:normal;font-variant-numeric:normal;font-feature-settings:normal;text-align:center;letter-spacing:0px;word-spacing:0px;writing-mode:lr-tb;text-anchor:middle;fill:#000000;fill-opacity:1;stroke:none;stroke-width:0.26458332"
         id="path18100"
         inkscape:connector-curvature="0" />
      <path
         d="M 7.6469355,291.05605 H 6.05238 v -0.16934 l 0.7231944,-0.75141 q 0.1799167,-0.18698 0.3033889,-0.33514 0.1234722,-0.14817 0.1869722,-0.29634 0.0635,-0.14816 0.0635,-0.33161 0,-0.23636 -0.1375833,-0.36336 -0.1375834,-0.13053 -0.3704167,-0.13053 -0.1693333,0 -0.3175,0.06 -0.1481666,0.06 -0.2928055,0.17286 l -0.1093611,-0.14113 q 0.1552222,-0.127 0.3386666,-0.19756 0.1834445,-0.0706 0.381,-0.0706 0.3245556,0 0.5185833,0.17992 0.1975556,0.17992 0.1975556,0.47978 0,0.20461 -0.074083,0.37394 -0.074083,0.16934 -0.2081388,0.33161 -0.1340556,0.16228 -0.3139722,0.34573 l -0.6314723,0.64911 v 0.0106 h 1.3370278 z"
         style="font-style:normal;font-variant:normal;font-weight:300;font-stretch:normal;font-size:3.52777767px;line-height:1.25;font-family:'Noto Sans';-inkscape-font-specification:'Noto Sans Light';font-variant-ligatures:normal;font-variant-caps:normal;font-variant-numeric:normal;font-feature-settings:normal;text-align:center;letter-spacing:0px;word-spacing:0px;writing-mode:lr-tb;text-anchor:middle;fill:#000000;fill-opacity:1;stroke:none;stroke-width:0.26458332"
         id="path18102"
         inkscape:connector-curvature="0" />
      <path
         d="M 9.8352601,290.4281 H 9.4154545 v 0.62795 H 9.2214268 V 290.4281 H 7.9549546 v -0.1658 l 1.2523611,-1.7392 h 0.2081388 v 1.72156 h 0.4198056 z m -0.6138333,-0.18344 v -0.93486 q 0,-0.13759 0,-0.23284 0,-0.0953 0.00353,-0.16933 0.00353,-0.0776 0.00706,-0.16228 h -0.010583 q -0.045861,0.0811 -0.088195,0.1517 -0.042333,0.0705 -0.1023055,0.15169 l -0.8643056,1.19592 z"
         style="font-style:normal;font-variant:normal;font-weight:300;font-stretch:normal;font-size:3.52777767px;line-height:1.25;font-family:'Noto Sans';-inkscape-font-specification:'Noto Sans Light';font-variant-ligatures:normal;font-variant-caps:normal;font-variant-numeric:normal;font-feature-settings:normal;text-align:center;letter-spacing:0px;word-spacing:0px;writing-mode:lr-tb;text-anchor:middle;fill:#000000;fill-opacity:1;stroke:none;stroke-width:0.26458332"
         id="path18104"
         inkscape:connector-curvature="0" />
      <path
         d="M 1.0184578,295.46577 H 0.82090212 v -1.87325 q 0,-0.1517 0,-0.24695 0.00353,-0.0988 0.00706,-0.18697 -0.049389,0.0494 -0.09525,0.0847 -0.042333,0.0353 -0.10936109,0.0882 l -0.34925,0.27164 -0.1093611,-0.14111 0.6843889,-0.51506 H 1.0184622 Z"
         style="font-style:normal;font-variant:normal;font-weight:300;font-stretch:normal;font-size:3.52777767px;line-height:1.25;font-family:'Noto Sans';-inkscape-font-specification:'Noto Sans Light';font-variant-ligatures:normal;font-variant-caps:normal;font-variant-numeric:normal;font-feature-settings:normal;text-align:center;letter-spacing:0px;word-spacing:0px;writing-mode:lr-tb;text-anchor:middle;fill:#000000;fill-opacity:1;stroke:none;stroke-width:0.26458332"
         id="path18106"
         inkscape:connector-curvature="0" />
      <path
         d="m 2.1166991,295.33171 q 0,-0.17286 0.1516944,-0.17286 0.15875,0 0.15875,0.17286 0,0.17286 -0.15875,0.17286 -0.1516944,0 -0.1516944,-0.17286 z"
         style="font-style:normal;font-variant:normal;font-weight:300;font-stretch:normal;font-size:3.52777767px;line-height:1.25;font-family:'Noto Sans';-inkscape-font-specification:'Noto Sans Light';font-variant-ligatures:normal;font-variant-caps:normal;font-variant-numeric:normal;font-feature-settings:normal;text-align:center;letter-spacing:0px;word-spacing:0px;writing-mode:lr-tb;text-anchor:middle;fill:#000000;fill-opacity:1;stroke:none;stroke-width:0.26458332"
         id="path18108"
         inkscape:connector-curvature="0" />
      <path
         d="m 4.3996672,293.52902 q 0,0.25047 -0.1481666,0.40922 -0.1481667,0.15875 -0.381,0.20108 v 0.0106 q 0.6067778,0.0811 0.6067778,0.61383 0,0.32456 -0.2293056,0.53269 -0.2257778,0.20462 -0.6879166,0.20462 -0.4021667,0 -0.6985,-0.14464 v -0.1905 q 0.1446389,0.0706 0.3316111,0.11641 0.1869722,0.0459 0.3704166,0.0459 0.3598334,0 0.5291667,-0.15169 0.1728611,-0.15522 0.1728611,-0.41628 0,-0.27516 -0.2046111,-0.39158 -0.2046111,-0.12 -0.5468056,-0.12 H 3.2460839 v -0.17638 h 0.2716389 q 0.2928056,0 0.4833056,-0.13406 0.1905,-0.13758 0.1905,-0.39864 0,-0.22225 -0.1446389,-0.33867 -0.1446389,-0.11641 -0.3845278,-0.11641 -0.2010833,0 -0.3633611,0.0635 -0.15875,0.06 -0.3139722,0.1658 l -0.1023056,-0.14111 q 0.1446389,-0.11289 0.3386667,-0.18697 0.1975556,-0.0741 0.4409722,-0.0741 0.34925,0 0.5432778,0.16933 0.1940277,0.16581 0.1940277,0.44803 z"
         style="font-style:normal;font-variant:normal;font-weight:300;font-stretch:normal;font-size:3.52777767px;line-height:1.25;font-family:'Noto Sans';-inkscape-font-specification:'Noto Sans Light';font-variant-ligatures:normal;font-variant-caps:normal;font-variant-numeric:normal;font-feature-settings:normal;text-align:center;letter-spacing:0px;word-spacing:0px;writing-mode:lr-tb;text-anchor:middle;fill:#000000;fill-opacity:1;stroke:none;stroke-width:0.26458332"
         id="path18110"
         inkscape:connector-curvature="0" />
      <path
         d="m 6.5103807,294.01585 q 0,0.45156 -0.1164166,0.7867 -0.1128889,0.33161 -0.3563056,0.51858 -0.2434166,0.18344 -0.6314722,0.18344 -0.088194,0 -0.1869722,-0.0106 -0.098778,-0.0106 -0.1622778,-0.0317 v -0.17992 q 0.0635,0.0212 0.1552222,0.0388 0.09525,0.0141 0.1905,0.0141 0.4515556,0 0.6702778,-0.30692 0.22225,-0.31044 0.2363611,-0.87489 h -0.014111 q -0.074083,0.13759 -0.2398889,0.24695 -0.1658055,0.10936 -0.4303889,0.10936 -0.3386666,0 -0.5326944,-0.20108 -0.1940278,-0.20461 -0.1940278,-0.56092 0,-0.381 0.2081389,-0.60678 0.2081389,-0.2293 0.5715,-0.2293 0.2716389,0 0.4550833,0.14111 0.1869722,0.14111 0.2822222,0.39158 0.09525,0.24695 0.09525,0.5715 z m -0.8325555,-0.93133 q -0.2716389,0 -0.4268611,0.17286 -0.1552222,0.16933 -0.1552222,0.48683 0,0.2787 0.1375833,0.44097 0.1411111,0.15875 0.4268611,0.15875 0.1975556,0 0.3386667,-0.0776 0.1446389,-0.0811 0.22225,-0.19755 0.077611,-0.11995 0.077611,-0.23636 0,-0.10584 -0.035278,-0.23284 -0.03175,-0.13052 -0.1023056,-0.24694 -0.070555,-0.11642 -0.1905,-0.1905 -0.1199444,-0.0776 -0.2928055,-0.0776 z"
         style="font-style:normal;font-variant:normal;font-weight:300;font-stretch:normal;font-size:3.52777767px;line-height:1.25;font-family:'Noto Sans';-inkscape-font-specification:'Noto Sans Light';font-variant-ligatures:normal;font-variant-caps:normal;font-variant-numeric:normal;font-feature-settings:normal;text-align:center;letter-spacing:0px;word-spacing:0px;writing-mode:lr-tb;text-anchor:middle;fill:#000000;fill-opacity:1;stroke:none;stroke-width:0.26458332"
         id="path18112"
         inkscape:connector-curvature="0" />
      <text
         id="text18214"
         y="292.56302"
         x="5.0020175"
         style="font-style:normal;font-variant:normal;font-weight:300;font-stretch:normal;font-size:2.11666656px;line-height:1.25;font-family:'Noto Sans';-inkscape-font-specification:'Noto Sans Light';font-variant-ligatures:normal;font-variant-caps:normal;font-variant-numeric:normal;font-feature-settings:normal;text-align:center;letter-spacing:0px;word-spacing:0px;writing-mode:lr-tb;text-anchor:middle;fill:#000000;fill-opacity:1;stroke:none;stroke-width:0.26458332"
         xml:space="preserve"><tspan
           style="font-style:normal;font-variant:normal;font-weight:300;font-stretch:normal;font-family:'Noto Sans';-inkscape-font-specification:'Noto Sans Light';stroke-width:0.26458332"
           y="292.56302"
           x="5.0020175"
           id="tspan18212"
           sodipodi:role="line">x</tspan></text>
    </g>
  </g>
</svg>
